<svg id="Glyph" height="512" viewBox="0 0 64 64" width="512" xmlns="http://www.w3.org/2000/svg"><path d="m60 36.373-7 3.379v-7.78l7-3.379zm-17 8.206v-7.779l8-3.862v7.779zm8-1.641v7.779l-8 3.862v-7.779zm-35.443-4.238-2.557 1.534v-5.113zm-1.185-5.1 5.366 2.591-2.461 1.476zm2.351 6.733 2.379 3.33-4.394-2.121zm1.72-1.033 2.557-1.534v5.113zm-5.443-8.583v-7.779l8 3.862v7.779zm29.178-5.741-7.878-3.8 7.878-3.8 7.879 3.8zm-2.3 1.11-7.878 3.804-7.878-3.8 7.878-3.807zm-18.056-1.11-7.879-3.8 7.879-3.8 7.878 3.8zm1.178 2.789 8 3.862v7.78l-8-3.862zm10 3.862 8-3.862v7.78l-8 3.862zm10-4.827 8-3.862v7.779l-8 3.862zm9.357-6.738-7.879-3.8 6.343-3.062 7.879 3.8zm-10.178-4.914-7.879-3.8 6.343-3.062 7.878 3.8zm-2.3 1.111-7.879 3.803-7.879-3.8 7.879-3.807zm-18.058-1.111-6.342-3.062 7.878-3.8 6.343 3.059zm-2.3 1.111-7.879 3.8-6.342-3.059 7.879-3.8zm-8.521 5.713v7.78l-7-3.379v-7.78zm-7 6.621 7 3.379v7.78l-7-3.379zm9 14.345 8 3.862v7.779l-8-3.862zm10-5.173 8 3.862v7.78l-8-3.862zm10 3.862 8-3.862v7.78l-8 3.862zm27-15.254-7 3.379v-7.78l7-3.379zm-28-22.263 6.343 3.063-6.343 3.062-6.343-3.062zm-28 34.483 7 3.379v7.779l-7-3.379zm28 21.3-9-4.345v-7.78l8 3.862v5.37h2v-5.373l8-3.862v7.78zm21-10.142v-7.779l7-3.379v7.779z"/><path d="m42.383 55.741h19.592v2h-19.592z" transform="matrix(.901 -.435 .435 .901 -19.479 28.328)"/><path d="m52.558 58.414h8.884v2h-8.884z" transform="matrix(.901 -.435 .435 .901 -20.162 30.691)"/><path d="m2.065 6.087h18.798v2h-18.798z" transform="matrix(.901 -.435 .435 .901 -1.941 5.689)"/><path d="m2.614 3.655h7.773v2h-7.773z" transform="matrix(.901 -.435 .435 .901 -1.377 3.288)"/></svg>