<svg id="fill" height="512" viewBox="0 0 64 64" width="512" xmlns="http://www.w3.org/2000/svg"><path d="m61 47-29 14-29-14v-30l29-14 29 14z" fill="#35d7fd"/><path d="m3 17 29-14 29 14-29 14z" fill="#e94561"/><path d="m61 47v-30l-29 14v30z" fill="#58a066"/><path d="m32 3-4 1.931 15.006 7.244a5.358 5.358 0 0 1 0 9.65l-15.006 7.244 4 1.931 29-14z" fill="#895e7a"/><path d="m28 29.069v17a4.978 4.978 0 0 1 -7.142 4.483l-17.858-8.621v5.069l29 14v-30z" fill="#03b3e2"/><path d="m42.383 55.741h19.592v2h-19.592z" fill="#f89c5b" transform="matrix(.901 -.435 .435 .901 -19.477 28.321)"/><path d="m52.558 58.414h8.884v2h-8.884z" fill="#f89c5b" transform="matrix(.901 -.435 .435 .901 -20.159 30.682)"/><path d="m13 32.938v7.779l8 3.862v-7.779z" fill="#ffd257"/><path d="m61 28.11v-2.22l-8 3.862v-8.752a1.112 1.112 0 0 0 -.018-.129l-1.982.957v8.889l-8 3.862v-8.579a.991.991 0 0 0 -.044-.289l-1.956.944v8.89l-9 4.345v2.11a.993.993 0 0 0 .435-.1l8.565-4.135v7.78l-9 4.345v2.11a.993.993 0 0 0 .435-.1l8.565-4.135v8.89l2-.965v-8.89l8-3.862v8.89l2-.966v-8.89l8-3.862v-2.22l-8 3.862v-7.78zm-18 16.469v-7.779l8-3.862v7.779z" fill="#7dd491"/><path d="m52.982 20.871a.993.993 0 0 0 -.547-.771l-7.957-3.841 7.493-3.618-2.3-1.11-7.493 3.617-7.878-3.8 7.493-3.617-2.3-1.111-7.493 3.615-7.493-3.618-2.3 1.111 7.493 3.617-7.878 3.8-7.493-3.617-2.3 1.11 7.493 3.618-7.957 3.844a.993.993 0 0 0 -.547.771l1.982.957v-.2l8.822-4.259 7.878 3.8-8.135 3.931a1 1 0 0 0 -.521.611l1.956.944v-.027l9-4.345 9 4.345v.027l1.956-.944a1 1 0 0 0 -.521-.611l-8.135-3.928 7.878-3.8 8.822 4.256v.2zm-20.982-.809-7.878-3.8 7.878-3.807 7.878 3.8z" fill="#aa889f"/><path d="m2.065 6.087h18.798v2h-18.798z" fill="#f89c5b" transform="matrix(.901 -.435 .435 .901 -1.941 5.688)"/><path d="m2.614 3.655h7.773v2h-7.773z" fill="#f89c5b" transform="matrix(.901 -.435 .435 .901 -1.377 3.288)"/><path d="m22.814 45.419-4.371-6.119 4.072-2.443-1.03-1.714-4.208 2.524-4.463-6.248-1.628 1.162 4.371 6.119-4.072 2.443 1.03 1.714 4.208-2.524 4.463 6.248z" fill="#ffe8ae"/><path d="m31.565 41.9a.993.993 0 0 0 .435.1v-2.11l-9-4.345v-8.89l-1.956-.944a.991.991 0 0 0 -.044.289v8.579l-8-3.862v-8.889l-1.982-.957a1.112 1.112 0 0 0 -.018.129v8.752l-8-3.862v2.22l8 3.862v7.78l-8-3.862v2.22l8 3.862v8.89l2 .966v-8.89l8 3.862v8.89l2 .965v-8.89l8.565 4.135a.993.993 0 0 0 .435.1v-2.11l-9-4.345v-7.78zm-18.565-1.183v-7.779l8 3.862v7.779z" fill="#bbf9ff"/><path d="m61.435 16.1-29-14a1 1 0 0 0 -.87 0l-29 14a1 1 0 0 0 -.565.9v30a1 1 0 0 0 .565.9l29 14a1 1 0 0 0 .87 0l29-14a1 1 0 0 0 .565-.9v-30a1 1 0 0 0 -.565-.9zm-1.435 20.273-7 3.379v-7.78l7-3.379zm-17 8.206v-7.779l8-3.862v7.779zm8-1.641v7.779l-8 3.862v-7.779zm-35.443-4.238-2.557 1.534v-5.113zm-1.185-5.1 5.366 2.591-2.461 1.476zm2.351 6.733 2.379 3.33-4.394-2.121zm1.72-1.033 2.557-1.534v5.113zm-5.443-8.583v-7.779l8 3.862v7.779zm29.178-5.741-7.878-3.8 7.878-3.8 7.879 3.8zm-2.3 1.11-7.878 3.804-7.878-3.8 7.878-3.807zm-18.056-1.11-7.879-3.8 7.879-3.8 7.878 3.8zm1.178 2.789 8 3.862v7.78l-8-3.862zm10 3.862 8-3.862v7.78l-8 3.862zm10-4.827 8-3.862v7.779l-8 3.862zm9.357-6.738-7.879-3.8 6.343-3.062 7.879 3.8zm-10.178-4.914-7.879-3.8 6.343-3.062 7.878 3.8zm-2.3 1.111-7.879 3.803-7.879-3.8 7.879-3.807zm-18.058-1.111-6.342-3.062 7.878-3.8 6.343 3.059zm-2.3 1.111-7.879 3.8-6.342-3.059 7.879-3.8zm-8.521 5.713v7.78l-7-3.379v-7.78zm-7 6.621 7 3.379v7.78l-7-3.379zm9 14.345 8 3.862v7.779l-8-3.862zm10-5.173 8 3.862v7.78l-8-3.862zm10 3.862 8-3.862v7.78l-8 3.862zm27-15.254-7 3.379v-7.78l7-3.379zm-28-22.263 6.343 3.063-6.343 3.062-6.343-3.062zm-28 34.483 7 3.379v7.779l-7-3.379zm28 21.3-9-4.345v-7.78l8 3.862v5.37h2v-5.373l8-3.862v7.78zm21-10.142v-7.779l7-3.379v7.779z"/><path d="m42.383 55.741h19.592v2h-19.592z" transform="matrix(.901 -.435 .435 .901 -19.479 28.328)"/><path d="m52.558 58.414h8.884v2h-8.884z" transform="matrix(.901 -.435 .435 .901 -20.162 30.691)"/><path d="m2.065 6.087h18.798v2h-18.798z" transform="matrix(.901 -.435 .435 .901 -1.941 5.689)"/><path d="m2.614 3.655h7.773v2h-7.773z" transform="matrix(.901 -.435 .435 .901 -1.377 3.288)"/></svg>